<mxfile host="Electron" modified="2023-09-24T05:40:08.372Z" agent="Mozilla/5.0 (Windows NT 10.0; Win64; x64) AppleWebKit/537.36 (KHTML, like Gecko) draw.io/21.7.5 Chrome/114.0.5735.289 Electron/25.8.1 Safari/537.36" etag="tAf9LhY3i6Z-tS7rKpT_" version="21.7.5" type="device">
  <diagram name="Página-1" id="nuipI9u-rjKTHeQEOVbs">
    <mxGraphModel dx="1558" dy="712" grid="1" gridSize="10" guides="1" tooltips="1" connect="1" arrows="1" fold="1" page="1" pageScale="1" pageWidth="827" pageHeight="1169" math="0" shadow="0">
      <root>
        <mxCell id="0" />
        <mxCell id="1" parent="0" />
        <mxCell id="8FqqD6K-RP70Fn5nfgbE-1" value="Veiculo" style="swimlane;fontStyle=0;childLayout=stackLayout;horizontal=1;startSize=26;fillColor=none;horizontalStack=0;resizeParent=1;resizeParentMax=0;resizeLast=0;collapsible=1;marginBottom=0;whiteSpace=wrap;html=1;strokeWidth=2;" vertex="1" parent="1">
          <mxGeometry x="300" y="310" width="160" height="130" as="geometry" />
        </mxCell>
        <mxCell id="8FqqD6K-RP70Fn5nfgbE-2" value="+&amp;nbsp;Marca : String&amp;nbsp;" style="text;strokeColor=none;fillColor=none;align=left;verticalAlign=top;spacingLeft=4;spacingRight=4;overflow=hidden;rotatable=0;points=[[0,0.5],[1,0.5]];portConstraint=eastwest;whiteSpace=wrap;html=1;strokeWidth=2;" vertex="1" parent="8FqqD6K-RP70Fn5nfgbE-1">
          <mxGeometry y="26" width="160" height="26" as="geometry" />
        </mxCell>
        <mxCell id="8FqqD6K-RP70Fn5nfgbE-3" value="+&amp;nbsp;Modelo : String" style="text;strokeColor=none;fillColor=none;align=left;verticalAlign=top;spacingLeft=4;spacingRight=4;overflow=hidden;rotatable=0;points=[[0,0.5],[1,0.5]];portConstraint=eastwest;whiteSpace=wrap;html=1;strokeWidth=2;" vertex="1" parent="8FqqD6K-RP70Fn5nfgbE-1">
          <mxGeometry y="52" width="160" height="26" as="geometry" />
        </mxCell>
        <mxCell id="8FqqD6K-RP70Fn5nfgbE-4" value="+&amp;nbsp;Ano de fabricação : String" style="text;strokeColor=none;fillColor=none;align=left;verticalAlign=top;spacingLeft=4;spacingRight=4;overflow=hidden;rotatable=0;points=[[0,0.5],[1,0.5]];portConstraint=eastwest;whiteSpace=wrap;html=1;strokeWidth=2;" vertex="1" parent="8FqqD6K-RP70Fn5nfgbE-1">
          <mxGeometry y="78" width="160" height="26" as="geometry" />
        </mxCell>
        <mxCell id="8FqqD6K-RP70Fn5nfgbE-6" value="+&amp;nbsp;Preço : Double" style="text;strokeColor=none;fillColor=none;align=left;verticalAlign=top;spacingLeft=4;spacingRight=4;overflow=hidden;rotatable=0;points=[[0,0.5],[1,0.5]];portConstraint=eastwest;whiteSpace=wrap;html=1;strokeWidth=2;" vertex="1" parent="8FqqD6K-RP70Fn5nfgbE-1">
          <mxGeometry y="104" width="160" height="26" as="geometry" />
        </mxCell>
        <mxCell id="8FqqD6K-RP70Fn5nfgbE-7" value="Carro" style="swimlane;fontStyle=0;childLayout=stackLayout;horizontal=1;startSize=26;fillColor=none;horizontalStack=0;resizeParent=1;resizeParentMax=0;resizeLast=0;collapsible=1;marginBottom=0;whiteSpace=wrap;html=1;strokeWidth=2;" vertex="1" parent="1">
          <mxGeometry x="190" y="520" width="160" height="52" as="geometry" />
        </mxCell>
        <mxCell id="8FqqD6K-RP70Fn5nfgbE-8" value="+&amp;nbsp;Número de Portas : int" style="text;strokeColor=none;fillColor=none;align=left;verticalAlign=top;spacingLeft=4;spacingRight=4;overflow=hidden;rotatable=0;points=[[0,0.5],[1,0.5]];portConstraint=eastwest;whiteSpace=wrap;html=1;strokeWidth=2;" vertex="1" parent="8FqqD6K-RP70Fn5nfgbE-7">
          <mxGeometry y="26" width="160" height="26" as="geometry" />
        </mxCell>
        <mxCell id="8FqqD6K-RP70Fn5nfgbE-12" value="Motocicleta" style="swimlane;fontStyle=0;childLayout=stackLayout;horizontal=1;startSize=26;fillColor=none;horizontalStack=0;resizeParent=1;resizeParentMax=0;resizeLast=0;collapsible=1;marginBottom=0;whiteSpace=wrap;html=1;strokeWidth=2;" vertex="1" parent="1">
          <mxGeometry x="414" y="520" width="160" height="52" as="geometry" />
        </mxCell>
        <mxCell id="8FqqD6K-RP70Fn5nfgbE-13" value="+&amp;nbsp;Cilindradas : int" style="text;strokeColor=none;fillColor=none;align=left;verticalAlign=top;spacingLeft=4;spacingRight=4;overflow=hidden;rotatable=0;points=[[0,0.5],[1,0.5]];portConstraint=eastwest;whiteSpace=wrap;html=1;strokeWidth=2;" vertex="1" parent="8FqqD6K-RP70Fn5nfgbE-12">
          <mxGeometry y="26" width="160" height="26" as="geometry" />
        </mxCell>
        <mxCell id="8FqqD6K-RP70Fn5nfgbE-17" value="" style="endArrow=open;endFill=1;endSize=12;html=1;rounded=0;exitX=0.5;exitY=0;exitDx=0;exitDy=0;entryX=0.334;entryY=1.031;entryDx=0;entryDy=0;entryPerimeter=0;" edge="1" parent="1" source="8FqqD6K-RP70Fn5nfgbE-7" target="8FqqD6K-RP70Fn5nfgbE-6">
          <mxGeometry width="160" relative="1" as="geometry">
            <mxPoint x="310" y="530" as="sourcePoint" />
            <mxPoint x="470" y="530" as="targetPoint" />
          </mxGeometry>
        </mxCell>
        <mxCell id="8FqqD6K-RP70Fn5nfgbE-18" value="" style="endArrow=open;endFill=1;endSize=12;html=1;rounded=0;exitX=0.486;exitY=-0.006;exitDx=0;exitDy=0;entryX=0.709;entryY=1;entryDx=0;entryDy=0;entryPerimeter=0;exitPerimeter=0;" edge="1" parent="1" source="8FqqD6K-RP70Fn5nfgbE-12" target="8FqqD6K-RP70Fn5nfgbE-6">
          <mxGeometry width="160" relative="1" as="geometry">
            <mxPoint x="300" y="500" as="sourcePoint" />
            <mxPoint x="363" y="451" as="targetPoint" />
          </mxGeometry>
        </mxCell>
        <mxCell id="8FqqD6K-RP70Fn5nfgbE-29" value="Concessionaria" style="swimlane;fontStyle=1;align=center;verticalAlign=top;childLayout=stackLayout;horizontal=1;startSize=26;horizontalStack=0;resizeParent=1;resizeParentMax=0;resizeLast=0;collapsible=1;marginBottom=0;whiteSpace=wrap;html=1;" vertex="1" parent="1">
          <mxGeometry x="745.5" y="610" width="309" height="138" as="geometry" />
        </mxCell>
        <mxCell id="8FqqD6K-RP70Fn5nfgbE-30" value="- _dependency :&amp;nbsp;&lt;b style=&quot;border-color: var(--border-color); text-align: center;&quot;&gt;IArmazenamento&lt;/b&gt;" style="text;strokeColor=none;fillColor=none;align=left;verticalAlign=top;spacingLeft=4;spacingRight=4;overflow=hidden;rotatable=0;points=[[0,0.5],[1,0.5]];portConstraint=eastwest;whiteSpace=wrap;html=1;" vertex="1" parent="8FqqD6K-RP70Fn5nfgbE-29">
          <mxGeometry y="26" width="309" height="26" as="geometry" />
        </mxCell>
        <mxCell id="8FqqD6K-RP70Fn5nfgbE-31" value="" style="line;strokeWidth=1;fillColor=none;align=left;verticalAlign=middle;spacingTop=-1;spacingLeft=3;spacingRight=3;rotatable=0;labelPosition=right;points=[];portConstraint=eastwest;strokeColor=inherit;" vertex="1" parent="8FqqD6K-RP70Fn5nfgbE-29">
          <mxGeometry y="52" width="309" height="8" as="geometry" />
        </mxCell>
        <mxCell id="8FqqD6K-RP70Fn5nfgbE-32" value="+ Constructor (&lt;b style=&quot;border-color: var(--border-color); text-align: center;&quot;&gt;IArmazenamento dependency&lt;/b&gt;): type" style="text;strokeColor=none;fillColor=none;align=left;verticalAlign=top;spacingLeft=4;spacingRight=4;overflow=hidden;rotatable=0;points=[[0,0.5],[1,0.5]];portConstraint=eastwest;whiteSpace=wrap;html=1;" vertex="1" parent="8FqqD6K-RP70Fn5nfgbE-29">
          <mxGeometry y="60" width="309" height="26" as="geometry" />
        </mxCell>
        <mxCell id="8FqqD6K-RP70Fn5nfgbE-33" value="+ GetInformação(&lt;b style=&quot;border-color: var(--border-color); text-align: center;&quot;&gt;IArmazenamento&lt;/b&gt;): type" style="text;strokeColor=none;fillColor=none;align=left;verticalAlign=top;spacingLeft=4;spacingRight=4;overflow=hidden;rotatable=0;points=[[0,0.5],[1,0.5]];portConstraint=eastwest;whiteSpace=wrap;html=1;" vertex="1" parent="8FqqD6K-RP70Fn5nfgbE-29">
          <mxGeometry y="86" width="309" height="26" as="geometry" />
        </mxCell>
        <mxCell id="8FqqD6K-RP70Fn5nfgbE-34" value="+ cadastrar(&lt;b style=&quot;border-color: var(--border-color); text-align: center;&quot;&gt;IArmazenamento&lt;/b&gt;): type" style="text;strokeColor=none;fillColor=none;align=left;verticalAlign=top;spacingLeft=4;spacingRight=4;overflow=hidden;rotatable=0;points=[[0,0.5],[1,0.5]];portConstraint=eastwest;whiteSpace=wrap;html=1;" vertex="1" parent="8FqqD6K-RP70Fn5nfgbE-29">
          <mxGeometry y="112" width="309" height="26" as="geometry" />
        </mxCell>
        <mxCell id="8FqqD6K-RP70Fn5nfgbE-35" value="" style="group" vertex="1" connectable="0" parent="1">
          <mxGeometry x="630" y="340" width="540" height="232" as="geometry" />
        </mxCell>
        <mxCell id="8FqqD6K-RP70Fn5nfgbE-19" value="«interface»&lt;br&gt;&lt;b&gt;IArmazenamento&lt;br&gt;&lt;br&gt;+ AddVeiculo&lt;br&gt;+ GetVeiculo&lt;br&gt;&lt;/b&gt;" style="html=1;whiteSpace=wrap;" vertex="1" parent="8FqqD6K-RP70Fn5nfgbE-35">
          <mxGeometry x="180" width="200" height="90" as="geometry" />
        </mxCell>
        <mxCell id="8FqqD6K-RP70Fn5nfgbE-20" value="&lt;b&gt;BancoDeDados_Armazenamento :&amp;nbsp;&lt;/b&gt;&lt;b style=&quot;border-color: var(--border-color);&quot;&gt;IArmazenamento&lt;/b&gt;" style="swimlane;fontStyle=0;childLayout=stackLayout;horizontal=1;startSize=30;fillColor=none;horizontalStack=0;resizeParent=1;resizeParentMax=0;resizeLast=0;collapsible=1;marginBottom=0;whiteSpace=wrap;html=1;" vertex="1" parent="8FqqD6K-RP70Fn5nfgbE-35">
          <mxGeometry y="150" width="250" height="82" as="geometry" />
        </mxCell>
        <mxCell id="8FqqD6K-RP70Fn5nfgbE-21" value="&lt;b style=&quot;border-color: var(--border-color); text-align: center;&quot;&gt;+ AddVeiculo&lt;/b&gt;" style="text;strokeColor=none;fillColor=none;align=left;verticalAlign=top;spacingLeft=4;spacingRight=4;overflow=hidden;rotatable=0;points=[[0,0.5],[1,0.5]];portConstraint=eastwest;whiteSpace=wrap;html=1;" vertex="1" parent="8FqqD6K-RP70Fn5nfgbE-20">
          <mxGeometry y="30" width="250" height="26" as="geometry" />
        </mxCell>
        <mxCell id="8FqqD6K-RP70Fn5nfgbE-22" value="&lt;b style=&quot;border-color: var(--border-color); text-align: center;&quot;&gt;+ GetVeiculo&lt;/b&gt;" style="text;strokeColor=none;fillColor=none;align=left;verticalAlign=top;spacingLeft=4;spacingRight=4;overflow=hidden;rotatable=0;points=[[0,0.5],[1,0.5]];portConstraint=eastwest;whiteSpace=wrap;html=1;" vertex="1" parent="8FqqD6K-RP70Fn5nfgbE-20">
          <mxGeometry y="56" width="250" height="26" as="geometry" />
        </mxCell>
        <mxCell id="8FqqD6K-RP70Fn5nfgbE-24" value="&lt;b&gt;Arquivo_Armazenamento&amp;nbsp;&lt;br&gt;:&amp;nbsp;&lt;/b&gt;&lt;b style=&quot;border-color: var(--border-color);&quot;&gt;IArmazenamento&lt;/b&gt;" style="swimlane;fontStyle=0;childLayout=stackLayout;horizontal=1;startSize=30;fillColor=none;horizontalStack=0;resizeParent=1;resizeParentMax=0;resizeLast=0;collapsible=1;marginBottom=0;whiteSpace=wrap;html=1;" vertex="1" parent="8FqqD6K-RP70Fn5nfgbE-35">
          <mxGeometry x="290" y="150" width="250" height="82" as="geometry" />
        </mxCell>
        <mxCell id="8FqqD6K-RP70Fn5nfgbE-25" value="&lt;b style=&quot;border-color: var(--border-color); text-align: center;&quot;&gt;+ AddVeiculo&lt;/b&gt;" style="text;strokeColor=none;fillColor=none;align=left;verticalAlign=top;spacingLeft=4;spacingRight=4;overflow=hidden;rotatable=0;points=[[0,0.5],[1,0.5]];portConstraint=eastwest;whiteSpace=wrap;html=1;" vertex="1" parent="8FqqD6K-RP70Fn5nfgbE-24">
          <mxGeometry y="30" width="250" height="26" as="geometry" />
        </mxCell>
        <mxCell id="8FqqD6K-RP70Fn5nfgbE-26" value="&lt;b style=&quot;border-color: var(--border-color); text-align: center;&quot;&gt;+ GetVeiculo&lt;/b&gt;" style="text;strokeColor=none;fillColor=none;align=left;verticalAlign=top;spacingLeft=4;spacingRight=4;overflow=hidden;rotatable=0;points=[[0,0.5],[1,0.5]];portConstraint=eastwest;whiteSpace=wrap;html=1;" vertex="1" parent="8FqqD6K-RP70Fn5nfgbE-24">
          <mxGeometry y="56" width="250" height="26" as="geometry" />
        </mxCell>
        <mxCell id="8FqqD6K-RP70Fn5nfgbE-27" value="" style="endArrow=block;dashed=1;endFill=0;endSize=12;html=1;rounded=0;exitX=0.5;exitY=1;exitDx=0;exitDy=0;entryX=0.75;entryY=0;entryDx=0;entryDy=0;" edge="1" parent="8FqqD6K-RP70Fn5nfgbE-35" source="8FqqD6K-RP70Fn5nfgbE-19" target="8FqqD6K-RP70Fn5nfgbE-20">
          <mxGeometry width="160" relative="1" as="geometry">
            <mxPoint x="190" y="160" as="sourcePoint" />
            <mxPoint x="350" y="160" as="targetPoint" />
          </mxGeometry>
        </mxCell>
        <mxCell id="8FqqD6K-RP70Fn5nfgbE-28" value="" style="endArrow=block;dashed=1;endFill=0;endSize=12;html=1;rounded=0;exitX=0.5;exitY=1;exitDx=0;exitDy=0;entryX=0.25;entryY=0;entryDx=0;entryDy=0;" edge="1" parent="8FqqD6K-RP70Fn5nfgbE-35" source="8FqqD6K-RP70Fn5nfgbE-19" target="8FqqD6K-RP70Fn5nfgbE-24">
          <mxGeometry width="160" relative="1" as="geometry">
            <mxPoint x="290" y="100" as="sourcePoint" />
            <mxPoint x="198" y="160" as="targetPoint" />
          </mxGeometry>
        </mxCell>
      </root>
    </mxGraphModel>
  </diagram>
</mxfile>
